<mxfile host="drawio-plugin" modified="2021-05-11T11:39:30.121Z" agent="5.0 (Windows NT 6.2; Win64; x64) AppleWebKit/537.36 (KHTML, like Gecko) Chrome/87.0.4280.141 Safari/537.36" version="13.7.9" etag="8MQXX3DTQgcZfuNWE2i2" type="embed"><diagram id="1Gqa9_uStb6yGPrUkZsY" name="Page-1"><mxGraphModel dx="1050" dy="393" grid="1" gridSize="10" guides="1" tooltips="1" connect="1" arrows="1" fold="1" page="1" pageScale="1" pageWidth="850" pageHeight="1100" background="#ffffff" math="0" shadow="0"><root><mxCell id="0"/><mxCell id="1" parent="0"/><mxCell id="2" value="Command" style="swimlane;fontStyle=3;align=center;verticalAlign=top;childLayout=stackLayout;horizontal=1;startSize=26;horizontalStack=0;resizeParent=1;resizeParentMax=0;resizeLast=0;collapsible=1;marginBottom=0;fontColor=#000000;strokeColor=#0000CC;strokeWidth=2;fillColor=#FFFFFF;" vertex="1" parent="1"><mxGeometry x="290" y="70" width="170" height="60" as="geometry"/></mxCell><mxCell id="3" value="" style="line;strokeWidth=2;align=left;verticalAlign=middle;spacingTop=-1;spacingLeft=3;spacingRight=3;rotatable=0;labelPosition=right;points=[];portConstraint=eastwest;fontColor=#000000;strokeColor=#0000CC;fillColor=#FFFFFF;" vertex="1" parent="2"><mxGeometry y="26" width="170" height="8" as="geometry"/></mxCell><mxCell id="4" value="+ execute()" style="text;align=left;verticalAlign=top;spacingLeft=4;spacingRight=4;overflow=hidden;rotatable=0;points=[[0,0.5],[1,0.5]];portConstraint=eastwest;fontColor=#000000;strokeColor=#0000CC;strokeWidth=2;fillColor=#FFFFFF;" vertex="1" parent="2"><mxGeometry y="34" width="170" height="26" as="geometry"/></mxCell><mxCell id="6" value="SimpleCommand" style="swimlane;fontStyle=1;align=center;verticalAlign=top;childLayout=stackLayout;horizontal=1;startSize=26;horizontalStack=0;resizeParent=1;resizeParentMax=0;resizeLast=0;collapsible=1;marginBottom=0;fontColor=#000000;strokeColor=#0000CC;strokeWidth=2;fillColor=#FFFFFF;" vertex="1" parent="1"><mxGeometry x="120" y="210" width="170" height="86" as="geometry"/></mxCell><mxCell id="9" value="# _payload: str" style="text;align=left;verticalAlign=top;spacingLeft=4;spacingRight=4;overflow=hidden;rotatable=0;points=[[0,0.5],[1,0.5]];portConstraint=eastwest;fontColor=#000000;strokeColor=#0000CC;strokeWidth=2;fillColor=#FFFFFF;" vertex="1" parent="6"><mxGeometry y="26" width="170" height="26" as="geometry"/></mxCell><mxCell id="7" value="" style="line;strokeWidth=2;align=left;verticalAlign=middle;spacingTop=-1;spacingLeft=3;spacingRight=3;rotatable=0;labelPosition=right;points=[];portConstraint=eastwest;fontColor=#000000;strokeColor=#0000CC;fillColor=#FFFFFF;" vertex="1" parent="6"><mxGeometry y="52" width="170" height="8" as="geometry"/></mxCell><mxCell id="8" value="+ execute()" style="text;align=left;verticalAlign=top;spacingLeft=4;spacingRight=4;overflow=hidden;rotatable=0;points=[[0,0.5],[1,0.5]];portConstraint=eastwest;fontColor=#000000;strokeColor=#0000CC;strokeWidth=2;fillColor=#FFFFFF;" vertex="1" parent="6"><mxGeometry y="60" width="170" height="26" as="geometry"/></mxCell><mxCell id="10" value="ComplexCommand" style="swimlane;fontStyle=1;align=center;verticalAlign=top;childLayout=stackLayout;horizontal=1;startSize=26;horizontalStack=0;resizeParent=1;resizeParentMax=0;resizeLast=0;collapsible=1;marginBottom=0;fontColor=#000000;strokeColor=#0000CC;strokeWidth=2;fillColor=#FFFFFF;" vertex="1" parent="1"><mxGeometry x="390" y="210" width="170" height="138" as="geometry"/></mxCell><mxCell id="11" value="# _receiver: Receiver" style="text;align=left;verticalAlign=top;spacingLeft=4;spacingRight=4;overflow=hidden;rotatable=0;points=[[0,0.5],[1,0.5]];portConstraint=eastwest;fontColor=#000000;strokeColor=#0000CC;strokeWidth=2;fillColor=#FFFFFF;" vertex="1" parent="10"><mxGeometry y="26" width="170" height="26" as="geometry"/></mxCell><mxCell id="14" value="# _a: str" style="text;align=left;verticalAlign=top;spacingLeft=4;spacingRight=4;overflow=hidden;rotatable=0;points=[[0,0.5],[1,0.5]];portConstraint=eastwest;fontColor=#000000;strokeColor=#0000CC;strokeWidth=2;fillColor=#FFFFFF;" vertex="1" parent="10"><mxGeometry y="52" width="170" height="26" as="geometry"/></mxCell><mxCell id="15" value="# _b: str" style="text;align=left;verticalAlign=top;spacingLeft=4;spacingRight=4;overflow=hidden;rotatable=0;points=[[0,0.5],[1,0.5]];portConstraint=eastwest;fontColor=#000000;strokeColor=#0000CC;strokeWidth=2;fillColor=#FFFFFF;" vertex="1" parent="10"><mxGeometry y="78" width="170" height="26" as="geometry"/></mxCell><mxCell id="12" value="" style="line;strokeWidth=2;align=left;verticalAlign=middle;spacingTop=-1;spacingLeft=3;spacingRight=3;rotatable=0;labelPosition=right;points=[];portConstraint=eastwest;fontColor=#000000;strokeColor=#0000CC;fillColor=#FFFFFF;" vertex="1" parent="10"><mxGeometry y="104" width="170" height="8" as="geometry"/></mxCell><mxCell id="13" value="+ execute()" style="text;align=left;verticalAlign=top;spacingLeft=4;spacingRight=4;overflow=hidden;rotatable=0;points=[[0,0.5],[1,0.5]];portConstraint=eastwest;fontColor=#000000;strokeColor=#0000CC;strokeWidth=2;fillColor=#FFFFFF;" vertex="1" parent="10"><mxGeometry y="112" width="170" height="26" as="geometry"/></mxCell><mxCell id="16" value="Receiver" style="swimlane;fontStyle=1;align=center;verticalAlign=top;childLayout=stackLayout;horizontal=1;startSize=26;horizontalStack=0;resizeParent=1;resizeParentMax=0;resizeLast=0;collapsible=1;marginBottom=0;fontColor=#000000;strokeColor=#0000CC;strokeWidth=2;fillColor=#FFFFFF;" vertex="1" parent="1"><mxGeometry x="730" y="57" width="170" height="86" as="geometry"/></mxCell><mxCell id="18" value="" style="line;strokeWidth=2;align=left;verticalAlign=middle;spacingTop=-1;spacingLeft=3;spacingRight=3;rotatable=0;labelPosition=right;points=[];portConstraint=eastwest;fontColor=#000000;strokeColor=#0000CC;fillColor=#FFFFFF;" vertex="1" parent="16"><mxGeometry y="26" width="170" height="8" as="geometry"/></mxCell><mxCell id="19" value="+ do_something(str)" style="text;align=left;verticalAlign=top;spacingLeft=4;spacingRight=4;overflow=hidden;rotatable=0;points=[[0,0.5],[1,0.5]];portConstraint=eastwest;fontColor=#000000;strokeColor=#0000CC;strokeWidth=2;fillColor=#FFFFFF;" vertex="1" parent="16"><mxGeometry y="34" width="170" height="26" as="geometry"/></mxCell><mxCell id="17" value="+ do_something_else(str)" style="text;align=left;verticalAlign=top;spacingLeft=4;spacingRight=4;overflow=hidden;rotatable=0;points=[[0,0.5],[1,0.5]];portConstraint=eastwest;fontColor=#000000;strokeColor=#0000CC;strokeWidth=2;fillColor=#FFFFFF;" vertex="1" parent="16"><mxGeometry y="60" width="170" height="26" as="geometry"/></mxCell><mxCell id="27" value="Extends" style="endArrow=block;endSize=16;endFill=0;html=1;entryX=0.25;entryY=1;entryDx=0;entryDy=0;exitX=0.5;exitY=0;exitDx=0;exitDy=0;strokeWidth=2;strokeColor=#0000CC;fontSize=17;fontColor=#000000;labelBackgroundColor=none;" edge="1" parent="1" source="6" target="2"><mxGeometry x="-0.253" y="24" width="160" relative="1" as="geometry"><mxPoint x="340" y="210" as="sourcePoint"/><mxPoint x="500" y="210" as="targetPoint"/><mxPoint as="offset"/></mxGeometry></mxCell><mxCell id="28" value="Extends" style="endArrow=block;endSize=16;endFill=0;html=1;entryX=0.5;entryY=1;entryDx=0;entryDy=0;exitX=0.5;exitY=0;exitDx=0;exitDy=0;strokeWidth=2;strokeColor=#0000CC;fontSize=17;fontColor=#000000;labelBackgroundColor=none;" edge="1" parent="1" source="10" target="2"><mxGeometry x="-0.253" y="24" width="160" relative="1" as="geometry"><mxPoint x="215" y="220" as="sourcePoint"/><mxPoint x="342.5" y="140" as="targetPoint"/><mxPoint as="offset"/></mxGeometry></mxCell><mxCell id="30" value="1" style="text;html=1;align=center;verticalAlign=middle;resizable=0;points=[];autosize=1;fontSize=17;fontColor=#000000;" vertex="1" parent="1"><mxGeometry x="700" y="45" width="20" height="30" as="geometry"/></mxCell><mxCell id="32" value="1" style="endArrow=open;html=1;endSize=12;startArrow=diamondThin;startSize=14;startFill=1;edgeStyle=orthogonalEdgeStyle;align=left;verticalAlign=bottom;labelBackgroundColor=none;strokeColor=#0000CC;strokeWidth=2;fontSize=17;fontColor=#000000;exitX=1;exitY=0.25;exitDx=0;exitDy=0;entryX=0;entryY=0.25;entryDx=0;entryDy=0;" edge="1" parent="1" source="10" target="16"><mxGeometry x="-1" y="3" relative="1" as="geometry"><mxPoint x="600" y="210" as="sourcePoint"/><mxPoint x="760" y="210" as="targetPoint"/></mxGeometry></mxCell><mxCell id="33" value="1" style="endArrow=open;html=1;endSize=12;startArrow=diamondThin;startSize=14;startFill=0;edgeStyle=orthogonalEdgeStyle;align=left;verticalAlign=bottom;labelBackgroundColor=none;strokeColor=#0000CC;strokeWidth=2;fontSize=17;fontColor=#000000;entryX=1;entryY=0.25;entryDx=0;entryDy=0;exitX=0;exitY=0.25;exitDx=0;exitDy=0;" edge="1" parent="1" source="20" target="2"><mxGeometry x="-0.9209" relative="1" as="geometry"><mxPoint x="600" y="210" as="sourcePoint"/><mxPoint x="760" y="210" as="targetPoint"/><mxPoint as="offset"/></mxGeometry></mxCell><mxCell id="34" value="1" style="endArrow=open;html=1;endSize=12;startArrow=diamondThin;startSize=14;startFill=0;edgeStyle=orthogonalEdgeStyle;align=left;verticalAlign=bottom;labelBackgroundColor=none;strokeColor=#0000CC;strokeWidth=2;fontSize=17;fontColor=#000000;entryX=1;entryY=0.5;entryDx=0;entryDy=0;exitX=0;exitY=0.5;exitDx=0;exitDy=0;" edge="1" parent="1" source="24" target="2"><mxGeometry x="-0.9223" y="35" relative="1" as="geometry"><mxPoint x="600" y="210" as="sourcePoint"/><mxPoint x="760" y="210" as="targetPoint"/><Array as="points"><mxPoint x="610" y="275"/><mxPoint x="610" y="100"/></Array><mxPoint as="offset"/></mxGeometry></mxCell><mxCell id="20" value="Invoker" style="swimlane;fontStyle=1;align=center;verticalAlign=top;childLayout=stackLayout;horizontal=1;startSize=26;horizontalStack=0;resizeParent=1;resizeParentMax=0;resizeLast=0;collapsible=1;marginBottom=0;fontColor=#000000;strokeColor=#0000CC;strokeWidth=2;fillColor=#FFFFFF;" vertex="1" parent="1"><mxGeometry x="800" y="210" width="170" height="164" as="geometry"/></mxCell><mxCell id="22" value="# _on_start: Command" style="text;align=left;verticalAlign=top;spacingLeft=4;spacingRight=4;overflow=hidden;rotatable=0;points=[[0,0.5],[1,0.5]];portConstraint=eastwest;fontColor=#000000;strokeColor=#0000CC;strokeWidth=2;fillColor=#FFFFFF;" vertex="1" parent="20"><mxGeometry y="26" width="170" height="26" as="geometry"/></mxCell><mxCell id="24" value="# _on_finish: Command" style="text;align=left;verticalAlign=top;spacingLeft=4;spacingRight=4;overflow=hidden;rotatable=0;points=[[0,0.5],[1,0.5]];portConstraint=eastwest;fontColor=#000000;strokeColor=#0000CC;strokeWidth=2;fillColor=#FFFFFF;" vertex="1" parent="20"><mxGeometry y="52" width="170" height="26" as="geometry"/></mxCell><mxCell id="21" value="" style="line;strokeWidth=2;align=left;verticalAlign=middle;spacingTop=-1;spacingLeft=3;spacingRight=3;rotatable=0;labelPosition=right;points=[];portConstraint=eastwest;fontColor=#000000;strokeColor=#0000CC;fillColor=#FFFFFF;" vertex="1" parent="20"><mxGeometry y="78" width="170" height="8" as="geometry"/></mxCell><mxCell id="25" value="+ set_on_start(Command)" style="text;align=left;verticalAlign=top;spacingLeft=4;spacingRight=4;overflow=hidden;rotatable=0;points=[[0,0.5],[1,0.5]];portConstraint=eastwest;fontColor=#000000;strokeColor=#0000CC;strokeWidth=2;fillColor=#FFFFFF;" vertex="1" parent="20"><mxGeometry y="86" width="170" height="26" as="geometry"/></mxCell><mxCell id="23" value="+ set_on_finish(Command)" style="text;align=left;verticalAlign=top;spacingLeft=4;spacingRight=4;overflow=hidden;rotatable=0;points=[[0,0.5],[1,0.5]];portConstraint=eastwest;fontColor=#000000;strokeColor=#0000CC;strokeWidth=2;fillColor=#FFFFFF;" vertex="1" parent="20"><mxGeometry y="112" width="170" height="26" as="geometry"/></mxCell><mxCell id="26" value="+ do_something_important()" style="text;align=left;verticalAlign=top;spacingLeft=4;spacingRight=4;overflow=hidden;rotatable=0;points=[[0,0.5],[1,0.5]];portConstraint=eastwest;fontColor=#000000;strokeColor=#0000CC;strokeWidth=2;fillColor=#FFFFFF;" vertex="1" parent="20"><mxGeometry y="138" width="170" height="26" as="geometry"/></mxCell><mxCell id="35" value="0..1" style="text;html=1;align=center;verticalAlign=middle;resizable=0;points=[];autosize=1;fontSize=17;fontColor=#000000;" vertex="1" parent="1"><mxGeometry x="455" y="45" width="40" height="30" as="geometry"/></mxCell><mxCell id="37" value="0..1" style="text;html=1;align=center;verticalAlign=middle;resizable=0;points=[];autosize=1;fontSize=17;fontColor=#000000;" vertex="1" parent="1"><mxGeometry x="460" y="100" width="40" height="30" as="geometry"/></mxCell></root></mxGraphModel></diagram></mxfile>